<mxfile host="app.diagrams.net">
  <diagram name="User Dashboard Wireframe" id="dashboard">
    <mxGraphModel dx="1434" dy="844" grid="1" gridSize="10" guides="1" tooltips="1" connect="1" arrows="1" fold="1" page="1" pageScale="1" pageWidth="1200" pageHeight="1400" math="0" shadow="0">
      <root>
        <mxCell id="0" />
        <mxCell id="1" parent="0" />

        <!-- Browser Window -->
        <mxCell id="browser" value="" style="rounded=0;whiteSpace=wrap;html=1;fillColor=#f5f5f5;strokeColor=#666666;" vertex="1" parent="1">
          <mxGeometry x="40" y="40" width="1120" height="1320" as="geometry" />
        </mxCell>

        <!-- Header -->
        <mxCell id="header" value="HEADER - Indigenous Art Atlas | Dashboard (highlighted)" style="rounded=0;whiteSpace=wrap;html=1;fillColor=#dae8fc;strokeColor=#6c8ebf;fontStyle=1" vertex="1" parent="1">
          <mxGeometry x="40" y="40" width="1120" height="60" as="geometry" />
        </mxCell>

        <!-- Sidebar Navigation (20%) -->
        <mxCell id="sidebar" value="" style="rounded=0;whiteSpace=wrap;html=1;fillColor=#e1d5e7;strokeColor=#9673a6;align=left;verticalAlign=top;" vertex="1" parent="1">
          <mxGeometry x="40" y="120" width="220" height="1200" as="geometry" />
        </mxCell>

        <!-- User Profile Card -->
        <mxCell id="user-avatar" value="" style="ellipse;whiteSpace=wrap;html=1;fillColor=#d2691e;strokeColor=none;fontColor=#ffffff;fontSize=40;fontStyle=1" vertex="1" parent="1">
          <mxGeometry x="110" y="150" width="80" height="80" as="geometry" />
        </mxCell>

        <mxCell id="user-initials" value="TW" style="text;html=1;strokeColor=none;fillColor=none;align=center;verticalAlign=middle;whiteSpace=wrap;rounded=0;fontSize=32;fontColor=#ffffff;fontStyle=1" vertex="1" parent="1">
          <mxGeometry x="110" y="165" width="80" height="50" as="geometry" />
        </mxCell>

        <mxCell id="user-name" value="Uncle Tommy Williams" style="text;html=1;strokeColor=none;fillColor=none;align=center;verticalAlign=middle;whiteSpace=wrap;rounded=0;fontSize=13;fontStyle=1" vertex="1" parent="1">
          <mxGeometry x="60" y="240" width="180" height="20" as="geometry" />
        </mxCell>

        <mxCell id="user-role" value="Artist" style="rounded=1;whiteSpace=wrap;html=1;fillColor=#cd853f;strokeColor=none;fontColor=#ffffff;fontSize=10;" vertex="1" parent="1">
          <mxGeometry x="110" y="265" width="80" height="20" as="geometry" />
        </mxCell>

        <!-- Sidebar Menu -->
        <mxCell id="menu-item1" value="→ My Submissions" style="rounded=0;whiteSpace=wrap;html=1;fillColor=#d2691e;strokeColor=none;fontColor=#ffffff;align=left;fontSize=12;fontStyle=1" vertex="1" parent="1">
          <mxGeometry x="60" y="320" width="180" height="35" as="geometry" />
        </mxCell>

        <mxCell id="menu-item2" value="   My Profile" style="rounded=0;whiteSpace=wrap;html=1;fillColor=#f5f5f5;strokeColor=none;fontColor=#333333;align=left;fontSize=12;" vertex="1" parent="1">
          <mxGeometry x="60" y="365" width="180" height="35" as="geometry" />
        </mxCell>

        <mxCell id="menu-item3" value="   Account Settings" style="rounded=0;whiteSpace=wrap;html=1;fillColor=#f5f5f5;strokeColor=none;fontColor=#333333;align=left;fontSize=12;" vertex="1" parent="1">
          <mxGeometry x="60" y="410" width="180" height="35" as="geometry" />
        </mxCell>

        <mxCell id="menu-item4" value="   Logout" style="rounded=0;whiteSpace=wrap;html=1;fillColor=#f5f5f5;strokeColor=none;fontColor=#d32f2f;align=left;fontSize=12;" vertex="1" parent="1">
          <mxGeometry x="60" y="455" width="180" height="35" as="geometry" />
        </mxCell>

        <!-- Main Content Area (80%) -->
        <mxCell id="main-content" value="" style="rounded=0;whiteSpace=wrap;html=1;fillColor=#ffffff;strokeColor=#666666;align=left;verticalAlign=top;" vertex="1" parent="1">
          <mxGeometry x="280" y="120" width="880" height="1200" as="geometry" />
        </mxCell>

        <!-- Dashboard Header -->
        <mxCell id="dash-header" value="My Submissions" style="text;html=1;strokeColor=none;fillColor=none;align=left;verticalAlign=middle;whiteSpace=wrap;rounded=0;fontSize=24;fontStyle=1" vertex="1" parent="1">
          <mxGeometry x="320" y="150" width="400" height="35" as="geometry" />
        </mxCell>

        <mxCell id="btn-submit-new" value="+ Submit New Art" style="rounded=1;whiteSpace=wrap;html=1;fillColor=#d2691e;strokeColor=none;fontColor=#ffffff;fontSize=13;fontStyle=1" vertex="1" parent="1">
          <mxGeometry x="980" y="150" width="160" height="35" as="geometry" />
        </mxCell>

        <!-- Tabs -->
        <mxCell id="tabs-container" value="" style="rounded=0;whiteSpace=wrap;html=1;fillColor=none;strokeColor=none;" vertex="1" parent="1">
          <mxGeometry x="320" y="220" width="820" height="50" as="geometry" />
        </mxCell>

        <mxCell id="tab1" value="All (8)" style="rounded=0;whiteSpace=wrap;html=1;fillColor=none;strokeColor=none;fontColor=#d2691e;fontSize=14;fontStyle=1;align=center;borderBottom=1;borderColor=#d2691e;borderWidth=3;" vertex="1" parent="1">
          <mxGeometry x="320" y="230" width="120" height="40" as="geometry" />
        </mxCell>

        <mxCell id="tab2" value="Pending (1)" style="rounded=0;whiteSpace=wrap;html=1;fillColor=none;strokeColor=none;fontColor=#666666;fontSize=14;align=center;" vertex="1" parent="1">
          <mxGeometry x="460" y="230" width="120" height="40" as="geometry" />
        </mxCell>

        <mxCell id="tab3" value="Approved (6)" style="rounded=0;whiteSpace=wrap;html=1;fillColor=none;strokeColor=none;fontColor=#666666;fontSize=14;align=center;" vertex="1" parent="1">
          <mxGeometry x="600" y="230" width="130" height="40" as="geometry" />
        </mxCell>

        <mxCell id="tab4" value="Rejected (1)" style="rounded=0;whiteSpace=wrap;html=1;fillColor=none;strokeColor=none;fontColor=#666666;fontSize=14;align=center;" vertex="1" parent="1">
          <mxGeometry x="750" y="230" width="120" height="40" as="geometry" />
        </mxCell>

        <mxCell id="tab-line" value="" style="endArrow=none;html=1;strokeWidth=1;strokeColor=#e0e0e0;" edge="1" parent="1">
          <mxGeometry width="50" height="50" relative="1" as="geometry">
            <mxPoint x="320" y="270" as="sourcePoint" />
            <mxPoint x="1140" y="270" as="targetPoint" />
          </mxGeometry>
        </mxCell>

        <!-- Submission Cards -->
        <!-- Card 1: Pending -->
        <mxCell id="card1-container" value="" style="rounded=0;whiteSpace=wrap;html=1;fillColor=#fffbf0;strokeColor=#ff9800;strokeWidth=2;" vertex="1" parent="1">
          <mxGeometry x="320" y="300" width="820" height="120" as="geometry" />
        </mxCell>

        <mxCell id="card1-thumb" value="[img]" style="rounded=0;whiteSpace=wrap;html=1;fillColor=#e0e0e0;strokeColor=#666666;" vertex="1" parent="1">
          <mxGeometry x="340" y="320" width="120" height="80" as="geometry" />
        </mxCell>

        <mxCell id="card1-title" value="Gumatj Clan Creation Stories Mural" style="text;html=1;strokeColor=none;fillColor=none;align=left;verticalAlign=middle;whiteSpace=wrap;rounded=0;fontSize=15;fontStyle=1" vertex="1" parent="1">
          <mxGeometry x="480" y="320" width="400" height="25" as="geometry" />
        </mxCell>

        <mxCell id="card1-date" value="Submitted: Oct 12, 2024" style="text;html=1;strokeColor=none;fillColor=none;align=left;verticalAlign=middle;whiteSpace=wrap;rounded=0;fontSize=11;fontColor=#666666;" vertex="1" parent="1">
          <mxGeometry x="480" y="350" width="200" height="20" as="geometry" />
        </mxCell>

        <mxCell id="card1-status" value="PENDING REVIEW" style="rounded=1;whiteSpace=wrap;html=1;fillColor=#ff9800;strokeColor=none;fontColor=#ffffff;fontSize=10;fontStyle=1" vertex="1" parent="1">
          <mxGeometry x="480" y="375" width="120" height="20" as="geometry" />
        </mxCell>

        <mxCell id="card1-btn1" value="Edit" style="rounded=1;whiteSpace=wrap;html=1;fillColor=#f5f5f5;strokeColor=#666666;fontSize=11;" vertex="1" parent="1">
          <mxGeometry x="960" y="330" width="80" height="30" as="geometry" />
        </mxCell>

        <mxCell id="card1-btn2" value="Delete" style="rounded=1;whiteSpace=wrap;html=1;fillColor=#ffffff;strokeColor=#d32f2f;fontColor=#d32f2f;fontSize=11;" vertex="1" parent="1">
          <mxGeometry x="1050" y="330" width="80" height="30" as="geometry" />
        </mxCell>

        <!-- Card 2: Approved -->
        <mxCell id="card2-container" value="" style="rounded=0;whiteSpace=wrap;html=1;fillColor=#f1f8f4;strokeColor=#4caf50;strokeWidth=2;" vertex="1" parent="1">
          <mxGeometry x="320" y="440" width="820" height="120" as="geometry" />
        </mxCell>

        <mxCell id="card2-thumb" value="[img]" style="rounded=0;whiteSpace=wrap;html=1;fillColor=#e0e0e0;strokeColor=#666666;" vertex="1" parent="1">
          <mxGeometry x="340" y="460" width="120" height="80" as="geometry" />
        </mxCell>

        <mxCell id="card2-title" value="Traditional Bark Painting - Saltwater Country" style="text;html=1;strokeColor=none;fillColor=none;align=left;verticalAlign=middle;whiteSpace=wrap;rounded=0;fontSize=15;fontStyle=1" vertex="1" parent="1">
          <mxGeometry x="480" y="460" width="400" height="25" as="geometry" />
        </mxCell>

        <mxCell id="card2-date" value="Submitted: Sept 28, 2024" style="text;html=1;strokeColor=none;fillColor=none;align=left;verticalAlign=middle;whiteSpace=wrap;rounded=0;fontSize=11;fontColor=#666666;" vertex="1" parent="1">
          <mxGeometry x="480" y="490" width="200" height="20" as="geometry" />
        </mxCell>

        <mxCell id="card2-status" value="✓ APPROVED" style="rounded=1;whiteSpace=wrap;html=1;fillColor=#4caf50;strokeColor=none;fontColor=#ffffff;fontSize=10;fontStyle=1" vertex="1" parent="1">
          <mxGeometry x="480" y="515" width="100" height="20" as="geometry" />
        </mxCell>

        <mxCell id="card2-stats" value="Views: 234 | Added to map" style="text;html=1;strokeColor=none;fillColor=none;align=left;verticalAlign=middle;whiteSpace=wrap;rounded=0;fontSize=10;fontColor=#666666;" vertex="1" parent="1">
          <mxGeometry x="595" y="515" width="200" height="20" as="geometry" />
        </mxCell>

        <mxCell id="card2-btn" value="View Public Page" style="rounded=1;whiteSpace=wrap;html=1;fillColor=#d2691e;strokeColor=none;fontColor=#ffffff;fontSize=11;fontStyle=1" vertex="1" parent="1">
          <mxGeometry x="1010" y="475" width="120" height="30" as="geometry" />
        </mxCell>

        <!-- Card 3: Rejected -->
        <mxCell id="card3-container" value="" style="rounded=0;whiteSpace=wrap;html=1;fillColor=#ffebee;strokeColor=#f44336;strokeWidth=2;" vertex="1" parent="1">
          <mxGeometry x="320" y="580" width="820" height="140" as="geometry" />
        </mxCell>

        <mxCell id="card3-thumb" value="[img]" style="rounded=0;whiteSpace=wrap;html=1;fillColor=#e0e0e0;strokeColor=#666666;" vertex="1" parent="1">
          <mxGeometry x="340" y="600" width="120" height="80" as="geometry" />
        </mxCell>

        <mxCell id="card3-title" value="Rock Art Site - Sacred Ceremonies" style="text;html=1;strokeColor=none;fillColor=none;align=left;verticalAlign=middle;whiteSpace=wrap;rounded=0;fontSize=15;fontStyle=1" vertex="1" parent="1">
          <mxGeometry x="480" y="600" width="400" height="25" as="geometry" />
        </mxCell>

        <mxCell id="card3-date" value="Submitted: Sept 15, 2024" style="text;html=1;strokeColor=none;fillColor=none;align=left;verticalAlign=middle;whiteSpace=wrap;rounded=0;fontSize=11;fontColor=#666666;" vertex="1" parent="1">
          <mxGeometry x="480" y="630" width="200" height="20" as="geometry" />
        </mxCell>

        <mxCell id="card3-status" value="REJECTED" style="rounded=1;whiteSpace=wrap;html=1;fillColor=#f44336;strokeColor=none;fontColor=#ffffff;fontSize=10;fontStyle=1" vertex="1" parent="1">
          <mxGeometry x="480" y="655" width="80" height="20" as="geometry" />
        </mxCell>

        <mxCell id="card3-reason" value="Reason: Location marked as sensitive but images show&#xa;restricted ceremony details. Please review submission guidelines." style="rounded=0;whiteSpace=wrap;html=1;fillColor=#ffc1c1;strokeColor=#f44336;align=left;verticalAlign=top;fontSize=10;fontColor=#c62828;" vertex="1" parent="1">
          <mxGeometry x="480" y="680" width="420" height="35" as="geometry" />
        </mxCell>

        <mxCell id="card3-btn" value="Edit & Resubmit" style="rounded=1;whiteSpace=wrap;html=1;fillColor=#f44336;strokeColor=none;fontColor=#ffffff;fontSize=11;fontStyle=1" vertex="1" parent="1">
          <mxGeometry x="1020" y="640" width="110" height="30" as="geometry" />
        </mxCell>

        <!-- Empty State Example -->
        <mxCell id="empty-example" value="EMPTY STATE (when no submissions)" style="rounded=0;whiteSpace=wrap;html=1;fillColor=#f5f5f5;strokeColor=#999999;strokeWidth=1;strokeStyle=dashed;fontStyle=1" vertex="1" parent="1">
          <mxGeometry x="320" y="760" width="820" height="200" as="geometry" />
        </mxCell>

        <mxCell id="empty-icon" value="📝" style="text;html=1;strokeColor=none;fillColor=none;align=center;verticalAlign=middle;whiteSpace=wrap;rounded=0;fontSize=48;" vertex="1" parent="1">
          <mxGeometry x="655" y="780" width="150" height="60" as="geometry" />
        </mxCell>

        <mxCell id="empty-text1" value="No submissions yet" style="text;html=1;strokeColor=none;fillColor=none;align=center;verticalAlign=middle;whiteSpace=wrap;rounded=0;fontSize=18;fontStyle=1;fontColor=#666666;" vertex="1" parent="1">
          <mxGeometry x="520" y="850" width="420" height="25" as="geometry" />
        </mxCell>

        <mxCell id="empty-text2" value="Start sharing indigenous art with the community!" style="text;html=1;strokeColor=none;fillColor=none;align=center;verticalAlign=middle;whiteSpace=wrap;rounded=0;fontSize=13;fontColor=#999999;" vertex="1" parent="1">
          <mxGeometry x="520" y="880" width="420" height="20" as="geometry" />
        </mxCell>

        <mxCell id="empty-btn" value="Submit Your First Entry" style="rounded=1;whiteSpace=wrap;html=1;fillColor=#d2691e;strokeColor=none;fontColor=#ffffff;fontSize=13;fontStyle=1" vertex="1" parent="1">
          <mxGeometry x="620" y="915" width="220" height="35" as="geometry" />
        </mxCell>

        <!-- Footer -->
        <mxCell id="footer" value="FOOTER" style="rounded=0;whiteSpace=wrap;html=1;fillColor=#3e2723;strokeColor=#000000;fontColor=#ffffff;align=center;" vertex="1" parent="1">
          <mxGeometry x="40" y="1340" width="1120" height="20" as="geometry" />
        </mxCell>

        <!-- Annotations -->
        <mxCell id="note1" value="💡 Sidebar collapses&#xa;to dropdown on mobile" style="text;html=1;strokeColor=#b85450;fillColor=#f8cecc;align=left;verticalAlign=middle;whiteSpace=wrap;rounded=0;fontSize=9;" vertex="1" parent="1">
          <mxGeometry x="20" y="500" width="100" height="35" as="geometry" />
        </mxCell>

        <mxCell id="note2" value="💡 Status color-coded:&#xa;Yellow=Pending&#xa;Green=Approved&#xa;Red=Rejected" style="text;html=1;strokeColor=#b85450;fillColor=#f8cecc;align=left;verticalAlign=middle;whiteSpace=wrap;rounded=0;fontSize=9;" vertex="1" parent="1">
          <mxGeometry x="1180" y="450" width="110" height="50" as="geometry" />
        </mxCell>

      </root>
    </mxGraphModel>
  </diagram>
</mxfile>